<svg width="61" height="20" viewBox="0 0 61 20" fill="none" xmlns="http://www.w3.org/2000/svg">
<path d="M4 10L56 10" stroke="#020817" stroke-width="2" stroke-linecap="round"/>
<circle cx="51" cy="10" r="9" fill="#F6FBFF" stroke="#020817" stroke-width="2"/>
<circle cx="27.5" cy="10.5" r="7.5" fill="#14B8A6" stroke="#020817" stroke-width="2"/>
<circle cx="7" cy="10" r="6" fill="#F6FBFF" stroke="#020817" stroke-width="2"/>
<path d="M8.19238 12.0063V9.01465C8.19238 8.78548 8.14583 8.58675 8.05273 8.41846C7.96322 8.24658 7.82715 8.1141 7.64453 8.021C7.46191 7.9279 7.23633 7.88135 6.96777 7.88135C6.71712 7.88135 6.49691 7.92432 6.30713 8.01025C6.12093 8.09619 5.97412 8.20898 5.8667 8.34863C5.76286 8.48828 5.71094 8.63867 5.71094 8.7998H4.71729C4.71729 8.59212 4.771 8.38623 4.87842 8.18213C4.98584 7.97803 5.13981 7.79362 5.34033 7.62891C5.54443 7.46061 5.78792 7.32812 6.0708 7.23145C6.35726 7.13118 6.67594 7.08105 7.02686 7.08105C7.44938 7.08105 7.82178 7.15267 8.14404 7.2959C8.46989 7.43913 8.72412 7.65576 8.90674 7.9458C9.09294 8.23226 9.18604 8.59212 9.18604 9.02539V11.7324C9.18604 11.9258 9.20215 12.1317 9.23438 12.3501C9.27018 12.5685 9.3221 12.7565 9.39014 12.9141V13H8.35352C8.30339 12.8854 8.264 12.7332 8.23535 12.5435C8.20671 12.3501 8.19238 12.1711 8.19238 12.0063ZM8.36426 9.47656L8.375 10.1748H7.37061C7.08773 10.1748 6.83529 10.1981 6.61328 10.2446C6.39128 10.2876 6.20508 10.3538 6.05469 10.4434C5.9043 10.5329 5.78971 10.6457 5.71094 10.7817C5.63216 10.9142 5.59277 11.07 5.59277 11.249C5.59277 11.4316 5.63395 11.5981 5.71631 11.7485C5.79867 11.8989 5.9222 12.0189 6.08691 12.1084C6.25521 12.1943 6.4611 12.2373 6.70459 12.2373C7.00895 12.2373 7.27751 12.1729 7.51025 12.0439C7.743 11.915 7.92741 11.7575 8.06348 11.5713C8.20312 11.3851 8.27832 11.2043 8.28906 11.0288L8.71338 11.5068C8.68831 11.6572 8.62028 11.8237 8.50928 12.0063C8.39827 12.189 8.24967 12.3644 8.06348 12.5327C7.88086 12.6974 7.66243 12.8353 7.4082 12.9463C7.15755 13.0537 6.87467 13.1074 6.55957 13.1074C6.16569 13.1074 5.82015 13.0304 5.52295 12.8765C5.22933 12.7225 5.00016 12.5166 4.83545 12.2588C4.67432 11.9974 4.59375 11.7056 4.59375 11.3833C4.59375 11.0718 4.65462 10.7979 4.77637 10.5615C4.89811 10.3216 5.07357 10.1229 5.30273 9.96533C5.5319 9.8042 5.80762 9.68245 6.12988 9.6001C6.45215 9.51774 6.81201 9.47656 7.20947 9.47656H8.36426Z" fill="#020817"/>
<path d="M29.126 12.645V8.56543C29.126 8.25293 29.0625 7.98193 28.9355 7.75244C28.8135 7.51807 28.6279 7.3374 28.3789 7.21045C28.1299 7.0835 27.8223 7.02002 27.4561 7.02002C27.1143 7.02002 26.814 7.07861 26.5552 7.1958C26.3013 7.31299 26.1011 7.4668 25.9546 7.65723C25.813 7.84766 25.7422 8.05273 25.7422 8.27246H24.3872C24.3872 7.98926 24.4604 7.7085 24.6069 7.43018C24.7534 7.15186 24.9634 6.90039 25.2368 6.67578C25.5151 6.44629 25.8472 6.26562 26.2329 6.13379C26.6235 5.99707 27.0581 5.92871 27.5366 5.92871C28.1128 5.92871 28.6206 6.02637 29.0601 6.22168C29.5044 6.41699 29.8511 6.7124 30.1001 7.10791C30.354 7.49854 30.481 7.98926 30.481 8.58008V12.2715C30.481 12.5352 30.5029 12.8159 30.5469 13.1138C30.5957 13.4116 30.6665 13.668 30.7593 13.8828V14H29.3457C29.2773 13.8438 29.2236 13.6362 29.1846 13.3774C29.1455 13.1138 29.126 12.8696 29.126 12.645ZM29.3604 9.19531L29.375 10.1475H28.0054C27.6196 10.1475 27.2754 10.1792 26.9727 10.2427C26.6699 10.3013 26.416 10.3916 26.2109 10.5137C26.0059 10.6357 25.8496 10.7896 25.7422 10.9751C25.6348 11.1558 25.5811 11.3682 25.5811 11.6123C25.5811 11.8613 25.6372 12.0884 25.7495 12.2935C25.8618 12.4985 26.0303 12.6621 26.2549 12.7842C26.4844 12.9014 26.7651 12.96 27.0972 12.96C27.5122 12.96 27.8784 12.8721 28.1958 12.6963C28.5132 12.5205 28.7646 12.3057 28.9502 12.0518C29.1406 11.7979 29.2432 11.5513 29.2578 11.312L29.8364 11.9639C29.8022 12.1689 29.7095 12.396 29.5581 12.645C29.4067 12.894 29.2041 13.1333 28.9502 13.3628C28.7012 13.5874 28.4033 13.7754 28.0566 13.9268C27.7148 14.0732 27.3291 14.1465 26.8994 14.1465C26.3623 14.1465 25.8911 14.0415 25.4858 13.8315C25.0854 13.6216 24.7729 13.3408 24.5483 12.9893C24.3286 12.6328 24.2188 12.2349 24.2188 11.7954C24.2188 11.3706 24.3018 10.9971 24.4678 10.6748C24.6338 10.3477 24.873 10.0767 25.1855 9.86182C25.498 9.64209 25.874 9.47607 26.3135 9.36377C26.7529 9.25146 27.2437 9.19531 27.7856 9.19531H29.3604Z" fill="#020817"/>
<path d="M53.2764 13.103V7.3916C53.2764 6.9541 53.1875 6.57471 53.0098 6.25342C52.8389 5.92529 52.5791 5.67236 52.2305 5.49463C51.8818 5.31689 51.4512 5.22803 50.9385 5.22803C50.46 5.22803 50.0396 5.31006 49.6772 5.47412C49.3218 5.63818 49.0415 5.85352 48.8364 6.12012C48.6382 6.38672 48.5391 6.67383 48.5391 6.98145H46.6421C46.6421 6.58496 46.7446 6.19189 46.9497 5.80225C47.1548 5.4126 47.4487 5.06055 47.8315 4.74609C48.2212 4.4248 48.686 4.17188 49.2261 3.9873C49.7729 3.7959 50.3813 3.7002 51.0513 3.7002C51.8579 3.7002 52.5688 3.83691 53.1841 4.11035C53.8062 4.38379 54.2915 4.79736 54.6401 5.35107C54.9956 5.89795 55.1733 6.58496 55.1733 7.41211V12.5801C55.1733 12.9492 55.2041 13.3423 55.2656 13.7593C55.334 14.1763 55.4331 14.5352 55.563 14.8359V15H53.584C53.4883 14.7812 53.4131 14.4907 53.3584 14.1284C53.3037 13.7593 53.2764 13.4175 53.2764 13.103ZM53.6045 8.27344L53.625 9.60645H51.7075C51.1675 9.60645 50.6855 9.65088 50.2617 9.73975C49.8379 9.82178 49.4824 9.94824 49.1953 10.1191C48.9082 10.29 48.6895 10.5054 48.5391 10.7651C48.3887 11.0181 48.3135 11.3154 48.3135 11.6572C48.3135 12.0059 48.3921 12.3237 48.5493 12.6108C48.7065 12.8979 48.9424 13.127 49.2568 13.2979C49.5781 13.4619 49.9712 13.5439 50.436 13.5439C51.0171 13.5439 51.5298 13.4209 51.9741 13.1748C52.4185 12.9287 52.7705 12.6279 53.0303 12.2725C53.2969 11.917 53.4404 11.5718 53.4609 11.2368L54.271 12.1494C54.2231 12.4365 54.0933 12.7544 53.8813 13.103C53.6694 13.4517 53.3857 13.7866 53.0303 14.1079C52.6816 14.4224 52.2646 14.6855 51.7793 14.8975C51.3008 15.1025 50.7607 15.2051 50.1592 15.2051C49.4072 15.2051 48.7476 15.0581 48.1802 14.7642C47.6196 14.4702 47.1821 14.0771 46.8677 13.585C46.5601 13.0859 46.4062 12.5288 46.4062 11.9136C46.4062 11.3188 46.5225 10.7959 46.7549 10.3447C46.9873 9.88672 47.3223 9.50732 47.7598 9.20654C48.1973 8.89893 48.7236 8.6665 49.3389 8.50928C49.9541 8.35205 50.6411 8.27344 51.3999 8.27344H53.6045Z" fill="#020817"/>
</svg>
