<svg width="24" height="24" viewBox="0 0 24 24" fill="none" xmlns="http://www.w3.org/2000/svg">
<path d="M13.0005 10.551V9.873C13.8587 9.65053 14.6188 9.14959 15.1617 8.44869C15.7047 7.7478 15.9997 6.88657 16.0005 6C16.0005 3.794 14.2065 2 12.0005 2C9.79451 2 8.00051 3.794 8.00051 6H10.0005C10.0005 4.897 10.8975 4 12.0005 4C13.1035 4 14.0005 4.897 14.0005 6C14.0005 7.103 13.1035 8 12.0005 8C11.7353 8 11.4809 8.10536 11.2934 8.29289C11.1059 8.48043 11.0005 8.73478 11.0005 9V10.551L2.33551 18.253C2.18459 18.388 2.07817 18.5657 2.03031 18.7624C1.98245 18.9592 1.9954 19.1659 2.06744 19.3551C2.13948 19.5444 2.26723 19.7073 2.43382 19.8225C2.60041 19.9376 2.798 19.9995 3.00051 20H21.0005C21.2032 19.9995 21.4009 19.9376 21.5676 19.8223C21.7342 19.707 21.862 19.5439 21.9339 19.3545C22.0059 19.165 22.0187 18.9582 21.9706 18.7614C21.9225 18.5645 21.8157 18.3869 21.6645 18.252L13.0005 10.551ZM5.63051 18L12.0005 12.338L18.3705 18H5.63051Z" fill="black"/>
</svg>
