<svg width="61" height="20" viewBox="0 0 61 20" fill="none" xmlns="http://www.w3.org/2000/svg">
<path d="M57.4286 10C57.4286 13.5504 54.5504 16.4286 51 16.4286C47.4496 16.4286 44.5714 13.5504 44.5714 10C44.5714 6.4496 47.4496 3.57143 51 3.57143C54.5504 3.57143 57.4286 6.4496 57.4286 10Z" fill="#F6FBFF"/>
<path d="M50.2857 0H51.7143V2.85714H50.2857V0Z" fill="#020817"/>
<path d="M61 9.28571V10.7143H58.1429V9.28571H61Z" fill="#020817"/>
<path d="M43.8571 9.28571V10.7143H41L41 9.28571H43.8571Z" fill="#020817"/>
<path d="M45.2411 14.2857L46.2107 15.3348L44.1124 17.2741L43.1428 16.2249L45.2411 14.2857Z" fill="#020817"/>
<path d="M57.3839 2.14286L58.3535 3.19198L56.2553 5.13121L55.2857 4.08208L57.3839 2.14286Z" fill="#020817"/>
<path d="M58.0982 17.274L59.0678 16.2249L56.9696 14.2856L56 15.3348L58.0982 17.274Z" fill="#020817"/>
<path d="M45.9554 5.13114L46.925 4.08201L44.8267 2.14279L43.8571 3.19191L45.9554 5.13114Z" fill="#020817"/>
<path d="M50.2857 17.1429H51.7143V20H50.2857V17.1429Z" fill="#020817"/>
<path d="M56.9286 10C56.9286 13.2743 54.2743 15.9286 51 15.9286C47.7257 15.9286 45.0714 13.2743 45.0714 10C45.0714 6.72574 47.7257 4.07143 51 4.07143C54.2743 4.07143 56.9286 6.72574 56.9286 10ZM50.7857 0.5H51.2143V2.35714H50.7857V0.5ZM60.5 10.2143H58.6429V9.78571H60.5V10.2143ZM43.3571 9.78571V10.2143H41.5L41.5 9.78571H43.3571ZM43.8494 16.2528L45.2132 14.9923L45.5041 15.307L44.1403 16.5675L43.8494 16.2528ZM55.9922 4.10991L57.3561 2.84942L57.647 3.16415L56.2831 4.42465L55.9922 4.10991ZM58.3613 16.2527L58.0704 16.5674L56.7065 15.3069L56.9974 14.9922L58.3613 16.2527ZM44.8545 2.84935L46.2184 4.10984L45.9275 4.42458L44.5637 3.16408L44.8545 2.84935ZM51.2143 17.6429V19.5H50.7857V17.6429H51.2143Z" stroke="black"/>
<path d="M33.422 11.1282C33.422 14.2461 30.8945 16.7736 27.7766 16.7736C24.6588 16.7736 22.1312 14.2461 22.1312 11.1282C22.1312 8.01032 24.6588 5.48278 27.7766 5.48278C30.8945 5.48278 33.422 8.01032 33.422 11.1282Z" fill="#14B8A6"/>
<path d="M26.9701 2.25684H28.5831V4.6763H26.9701V2.25684Z" fill="#020817"/>
<path d="M21.3247 10.3217V11.9347H18.9053L18.9053 10.3217H21.3247Z" fill="#020817"/>
<path d="M23.415 6.18925L22.4066 7.44815L20.5182 5.93558L21.5266 4.67667L23.415 6.18925Z" fill="#020817"/>
<path d="M34.7058 16.6736L33.6974 17.9325L31.8091 16.4199L32.8174 15.161L34.7058 16.6736Z" fill="#020817"/>
<path d="M32.6155 6.18925L33.6239 7.44815L35.5123 5.93558L34.5039 4.67667L32.6155 6.18925Z" fill="#020817"/>
<path d="M20.5182 16.6736L21.5266 17.9325L23.415 16.4199L22.4066 15.161L20.5182 16.6736Z" fill="#020817"/>
<path d="M36.648 10.3217V11.9347H34.2285V10.3217H36.648Z" fill="#020817"/>
<path d="M26.9701 17.5801H28.5831V19.9995H26.9701V17.5801Z" fill="#020817"/>
<path d="M32.922 11.1282C32.922 13.9699 30.6184 16.2736 27.7766 16.2736C24.9349 16.2736 22.6312 13.9699 22.6312 11.1282C22.6312 8.28646 24.9349 5.98278 27.7766 5.98278C30.6184 5.98278 32.922 8.28646 32.922 11.1282ZM27.4701 2.75684H28.0831V4.1763H27.4701V2.75684ZM20.8247 10.8217V11.4347H19.4053L19.4053 10.8217H20.8247ZM21.6043 5.3795L22.7122 6.26691L22.3289 6.74532L21.2211 5.85792L21.6043 5.3795ZM32.8951 15.8638L34.003 16.7512L33.6198 17.2297L32.5119 16.3422L32.8951 15.8638ZM33.3184 6.26691L34.4262 5.3795L34.8095 5.85792L33.7016 6.74532L33.3184 6.26691ZM22.7122 16.3422L21.6043 17.2297L21.2211 16.7512L22.3289 15.8638L22.7122 16.3422ZM36.148 11.4347H34.7285V10.8217H36.148V11.4347ZM28.0831 18.0801V19.4995H27.4701V18.0801H28.0831Z" stroke="black"/>
<path d="M11.872 12.6945C11.872 15.2163 9.82763 17.2606 7.30582 17.2606C4.78401 17.2606 2.73968 15.2163 2.73968 12.6945C2.73968 10.1727 4.78401 8.12835 7.30582 8.12835C9.82763 8.12835 11.872 10.1727 11.872 12.6945Z" fill="#F6FBFF"/>
<path d="M6.39259 18.1739H8.21905V20.0003H6.39259V18.1739Z" fill="#020817"/>
<path d="M6.39259 5.38867H8.21905V7.21513H6.39259V5.38867Z" fill="#020817"/>
<path d="M12.7852 11.7813H14.6116V13.6077H12.7852V11.7813Z" fill="#020817"/>
<path d="M0 11.7813H1.82645V13.6077H0V11.7813Z" fill="#020817"/>
<path d="M1.82645 7.21513H3.65291V9.04158H1.82645V7.21513Z" fill="#020817"/>
<path d="M11.872 7.21513H13.6984V9.04158H11.872V7.21513Z" fill="#020817"/>
<path d="M11.872 16.3474H13.6984V18.1739H11.872V16.3474Z" fill="#020817"/>
<path d="M1.82645 16.3474H3.65291V18.1739H1.82645V16.3474Z" fill="#020817"/>
<path d="M11.372 12.6945C11.372 14.9402 9.55149 16.7606 7.30582 16.7606C5.06015 16.7606 3.23968 14.9402 3.23968 12.6945C3.23968 10.4488 5.06015 8.62835 7.30582 8.62835C9.55149 8.62835 11.372 10.4488 11.372 12.6945ZM7.71905 18.6739V19.5003H6.89259V18.6739H7.71905ZM6.89259 5.88867H7.71905V6.71513H6.89259V5.88867ZM14.1116 12.2813V13.1077H13.2852V12.2813H14.1116ZM0.5 12.2813H1.32645V13.1077H0.5V12.2813ZM2.32645 7.71513H3.15291V8.54158H2.32645V7.71513ZM12.372 7.71513H13.1984V8.54158H12.372V7.71513ZM13.1984 16.8474V17.6739H12.372V16.8474H13.1984ZM2.32645 16.8474H3.15291V17.6739H2.32645V16.8474Z" stroke="black"/>
</svg>
