<svg width="91" height="26" viewBox="0 0 91 26" fill="none" xmlns="http://www.w3.org/2000/svg">
<path d="M9.11799 20.96H19.99V26H2.13398V21.32L12.934 5.768H2.13398V0.727999H19.99V5.408L9.11799 20.96ZM43.0273 3.536L35.2513 18.576V26H29.7793V18.576L22.0033 3.536H28.2113L32.5633 12.944L36.8833 3.536H43.0273ZM56.688 26L52.016 17.52H50.704V26H45.232V3.536H54.416C56.1867 3.536 57.6907 3.84533 58.928 4.464C60.1867 5.08267 61.1254 5.936 61.744 7.024C62.3627 8.09067 62.672 9.28533 62.672 10.608C62.672 12.1013 62.2454 13.4347 61.392 14.608C60.56 15.7813 59.3227 16.6133 57.68 17.104L62.864 26H56.688ZM50.704 13.648H54.096C55.0987 13.648 55.8454 13.4027 56.336 12.912C56.848 12.4213 57.104 11.728 57.104 10.832C57.104 9.97867 56.848 9.30667 56.336 8.816C55.8454 8.32533 55.0987 8.08 54.096 8.08H50.704V13.648ZM82.087 21.536H72.655L71.143 26H64.699L73.843 0.727999H80.971L90.115 26H83.599L82.087 21.536ZM80.503 16.784L77.371 7.532L74.275 16.784H80.503Z" fill="#0284C7"/>
</svg>
